<svg width="66" height="66" viewBox="0 0 66 66" fill="none" xmlns="http://www.w3.org/2000/svg">
<rect width="66" height="66" rx="33" fill="#E0F0D4"/>
<g clip-path="url(#clip0_2148_2567)">
<path d="M32.59 17.6428L19.2467 46.5531C19.0377 47.0135 19.1622 47.5628 19.5581 47.883C19.7498 48.0397 19.9886 48.1275 20.2362 48.1323C20.4838 48.1372 20.7258 48.0588 20.9235 47.9097L33.5996 38.4026L46.2757 47.9097C46.6826 48.2166 47.2475 48.2055 47.6411 47.8852C47.9102 47.6695 48.0548 47.347 48.0548 47.0201C48.0548 46.8622 48.0214 46.7043 47.9525 46.5553L34.6092 17.645C34.4269 17.2492 34.0333 16.9979 33.5996 16.9979C33.166 16.9979 32.7723 17.2492 32.59 17.6428Z" fill="white" fill-opacity="0.8"/>
</g>
<defs>
<clipPath id="clip0_2148_2567">
<rect width="31.135" height="31.135" fill="white" transform="translate(17 48.1328) rotate(-90)"/>
</clipPath>
</defs>
</svg>
