<svg width="31" height="26" viewBox="0 0 31 26" fill="none" xmlns="http://www.w3.org/2000/svg">
<path d="M20.4092 0.626594C17.3061 0.679209 8.64559 1.1327 3.07272 4.44269C2.16659 4.98112 1.64486 5.84501 1.64486 6.75399V18.4526C1.64489 18.8271 1.80246 19.1905 2.09172 19.4831C2.38098 19.7757 2.78474 19.9802 3.23671 20.0628L26.8609 24.3868C28.139 24.6208 29.3551 23.8356 29.3551 22.7765V11.1899C29.3552 10.7284 29.1919 10.2764 28.8846 9.88735L22.1681 1.38876C21.9804 1.1505 21.72 0.955249 21.4119 0.821777C21.1039 0.688305 20.7586 0.621092 20.4092 0.626594ZM24.7712 16.1628L5.40175 12.6306C4.98575 12.5548 4.61404 12.3668 4.34772 12.0976C4.08141 11.8284 3.93635 11.494 3.93638 11.1494V9.64707C3.93638 8.67344 5.05393 7.95136 6.22883 8.16558L25.5982 11.6976C26.0143 11.7734 26.386 11.9613 26.6523 12.2305C26.9186 12.4997 27.0637 12.8341 27.0636 13.1788V14.6813C27.0636 15.6547 25.9461 16.377 24.7712 16.1628ZM3.93638 17.0761V16.1435C3.93638 15.1702 5.05393 14.4481 6.22883 14.6623L25.5982 18.1943C26.0143 18.2701 26.386 18.458 26.6523 18.7272C26.9186 18.9964 27.0637 19.3308 27.0636 19.6755V20.6078C27.0636 21.5814 25.9461 22.3035 24.7712 22.0893L5.40175 18.5571C4.98575 18.4812 4.61404 18.2933 4.34772 18.0241C4.08141 17.7549 3.93635 17.4207 3.93638 17.0761Z" fill="#F0D3D3"/>
</svg>
