<svg width="67" height="67" viewBox="0 0 67 67" fill="none" xmlns="http://www.w3.org/2000/svg">
<path d="M65.5435 62.4394H59.7174V40.8828C59.7174 40.0784 59.0652 39.4263 58.2609 39.4263H53.5257V25.735C53.5257 24.9306 52.8735 24.2785 52.0692 24.2785H47.3367V10.5872C47.3367 9.78275 46.6844 9.13066 45.8801 9.13066H40.5143C41.951 7.43105 42.637 5.23112 42.403 2.99011C42.3683 2.65787 42.2204 2.34766 41.9842 2.11147C41.748 1.87528 41.4378 1.72746 41.1055 1.69279C38.6331 1.43469 36.208 2.29331 34.4524 4.04857C34.101 4.40076 33.7823 4.78403 33.5 5.19369C33.2177 4.78408 32.8989 4.40086 32.5476 4.04871C30.7922 2.29331 28.3665 1.43498 25.8945 1.69279C25.5622 1.72746 25.252 1.8753 25.0157 2.11153C24.7795 2.34775 24.6317 2.65799 24.597 2.99026C24.3631 5.23126 25.0491 7.43119 26.4857 9.13066H21.1199C20.3154 9.13066 19.6633 9.78275 19.6633 10.5872V24.2785H14.9308C14.1264 24.2785 13.4743 24.9306 13.4743 25.735V39.4263H8.73913C7.93469 39.4263 7.28261 40.0784 7.28261 40.8828V62.4394H1.45652C0.652085 62.4394 0 63.0914 0 63.8959C0 64.7003 0.652085 65.3524 1.45652 65.3524H65.5435C66.3478 65.3524 67 64.7003 67 63.8959C67 63.0914 66.3479 62.4394 65.5435 62.4394ZM36.5124 6.10853C37.3144 5.30386 38.3553 4.78041 39.4795 4.61647C39.3171 5.72983 38.802 6.76877 37.9873 7.58355C37.1725 8.39832 36.1337 8.91335 35.0202 9.07561C35.1842 7.95142 35.7077 6.91051 36.5124 6.10853ZM30.4878 6.10838C31.3024 6.92316 31.8174 7.9621 31.9798 9.07546C30.8557 8.91139 29.8148 8.38797 29.0127 7.5834C28.1981 6.76862 27.6831 5.72968 27.5207 4.61632C28.6448 4.78047 29.6857 5.30388 30.4878 6.10838ZM44.4238 12.0437V13.5023C43.1171 14.6622 41.4571 15.2967 39.6895 15.2967C37.7331 15.2967 35.9072 14.5217 34.5481 13.1145L34.5295 13.0956C34.3928 12.9587 34.2302 12.8505 34.0512 12.7772C33.8722 12.704 33.6803 12.6672 33.4869 12.6691C33.2935 12.6708 33.1023 12.7109 32.9246 12.7873C32.7469 12.8636 32.5862 12.9746 32.4519 13.1138C31.0927 14.5211 29.2668 15.2963 27.3102 15.2963C25.5427 15.2963 23.883 14.6619 22.5765 13.5021V12.0437H44.4238ZM22.5764 17.0311C24.0141 17.8 25.6275 18.2093 27.3102 18.2093C29.5884 18.2093 31.7407 17.4627 33.4994 16.0832C35.2582 17.4628 37.4109 18.2097 39.6892 18.2097H39.6895C41.3719 18.2097 42.9852 17.8005 44.4236 17.0308V24.2785H22.5764V17.0311ZM50.6128 27.1915V29.0017C49.3062 30.1618 47.6462 30.7963 45.8785 30.7963C43.9221 30.7963 42.0962 30.0214 40.737 28.6143C40.601 28.4733 40.438 28.3612 40.2577 28.2847C40.0775 28.2082 39.8836 28.1688 39.6877 28.1689H39.6751C39.4816 28.1706 39.2904 28.2108 39.1127 28.2872C38.9349 28.3636 38.7742 28.4747 38.6398 28.6138C37.2805 30.021 35.4547 30.796 33.4982 30.796C31.5419 30.796 29.716 30.021 28.3567 28.6138L28.3382 28.5949C28.2015 28.458 28.0389 28.3498 27.8599 28.2766C27.6809 28.2033 27.4891 28.1665 27.2957 28.1683C27.1022 28.1699 26.9111 28.2101 26.7334 28.2865C26.5557 28.3628 26.395 28.4738 26.2606 28.613C24.9016 30.0202 23.0755 30.7954 21.1191 30.7954C19.3527 30.7955 17.6938 30.1618 16.3876 29.0034V27.1914H50.6128V27.1915ZM16.3873 32.5317C17.8245 33.2997 19.437 33.7087 21.119 33.7086C23.3971 33.7086 25.5494 32.962 27.308 31.5825C29.0669 32.9621 31.2197 33.709 33.4981 33.709C35.7752 33.709 37.9272 32.963 39.6877 31.5822C41.4468 32.9621 43.5998 33.7092 45.8785 33.7092C47.5615 33.7092 49.1751 33.2997 50.6128 32.5307V39.4262H16.3873V32.5317ZM56.8043 42.3394V43.9889C55.4977 45.1491 53.8376 45.7837 52.0698 45.7837C50.1135 45.7837 48.2878 45.0089 46.9322 43.6055C46.7965 43.4637 46.6336 43.3507 46.4532 43.2734C46.2728 43.1961 46.0786 43.156 45.8823 43.1556H45.8784C45.6828 43.1557 45.4891 43.1952 45.3091 43.2717C45.129 43.3482 44.9662 43.4601 44.8303 43.6009C43.4711 45.008 41.6452 45.783 39.6888 45.783C37.7342 45.783 35.9101 45.0096 34.5513 43.6052C34.4162 43.464 34.254 43.3514 34.0744 43.2742C33.8949 43.1969 33.7016 43.1566 33.5061 43.1556C33.1043 43.1581 32.7263 43.3145 32.45 43.6007C31.0908 45.0079 29.2647 45.7829 27.3083 45.7829C25.3519 45.7829 23.526 45.0079 22.1668 43.6007L22.1483 43.5818C22.0115 43.4451 21.8488 43.337 21.6699 43.2638C21.4909 43.1906 21.2991 43.1537 21.1057 43.1553C20.9123 43.1569 20.7212 43.1971 20.5435 43.2735C20.3658 43.3498 20.205 43.4608 20.0707 43.6C18.7116 45.0073 16.8856 45.7824 14.9292 45.7824C13.1617 45.7823 11.5022 45.1481 10.1957 43.9886V42.3394H56.8043ZM10.1957 62.4394V47.5174C11.6332 48.2862 13.2465 48.6953 14.9292 48.6953C17.2073 48.6953 19.3596 47.9487 21.1183 46.5692C22.8771 47.9489 25.0299 48.6958 27.3083 48.6958C29.5854 48.6958 31.7375 47.9497 33.4981 46.569C35.257 47.9489 37.4102 48.6959 39.6889 48.6959C41.9676 48.6959 44.1207 47.9489 45.8791 46.5694C47.638 47.9496 49.7912 48.6966 52.0699 48.6966H52.0701C53.7523 48.6966 55.3654 48.2875 56.8046 47.517V62.4392L10.1957 62.4394Z" fill="#F0D3D3"/>
</svg>
