<svg width="35" height="31" viewBox="0 0 35 31" fill="none" xmlns="http://www.w3.org/2000/svg">
<path d="M34.275 15.5219L1.77579 2.23654C1.25831 2.0284 0.640822 2.1524 0.280831 2.54653C0.104678 2.73744 0.00597426 2.9752 0.000534855 3.22171C-0.00490455 3.46822 0.083235 3.70921 0.250832 3.90607L10.9381 16.5272L0.250832 29.1483C-0.0941599 29.5535 -0.0816602 30.1159 0.278331 30.5078C0.520825 30.7758 0.883316 30.9197 1.25081 30.9197C1.4283 30.9197 1.6058 30.8865 1.77329 30.8178L34.2725 17.5324C34.7175 17.3509 35 16.959 35 16.5272C35 16.0954 34.7175 15.7035 34.275 15.5219Z" fill="#F0D3D3"/>
</svg>
