<svg width="35" height="35" viewBox="0 0 35 35" fill="none" xmlns="http://www.w3.org/2000/svg">
<g clip-path="url(#clip0_30_148)">
<path d="M15.7773 24.6532C13.064 24.3703 10.6176 23.702 8.52301 22.0638C8.26311 21.86 7.99479 21.6635 7.75762 21.4359C6.84084 20.5554 6.74846 19.547 7.4739 18.5078C8.09449 17.6185 9.13627 17.3806 10.2191 17.8912C10.4288 17.9902 10.6286 18.1137 10.8199 18.2464C14.7235 20.9286 20.0859 21.0026 24.0042 18.367C24.3923 18.0694 24.8073 17.8267 25.2882 17.7028C26.2233 17.4627 27.0954 17.8062 27.5972 18.6243C28.1705 19.5587 28.1632 20.4707 27.4568 21.1962C26.3733 22.3083 25.0701 23.1129 23.6222 23.6745C22.2531 24.2053 20.7535 24.4725 19.2692 24.6499C19.4932 24.8937 19.5988 25.0136 19.7388 25.1543C21.7542 27.1792 23.7783 29.1957 25.7871 31.2269C26.4715 31.9189 26.6145 32.7771 26.2376 33.582C25.8256 34.4618 24.9033 35.0406 23.999 34.9786C23.4261 34.9391 22.9792 34.6539 22.5822 34.254C21.0614 32.7235 19.5119 31.2214 18.0218 29.662C17.5882 29.2085 17.3796 29.2943 16.9969 29.688C15.4668 31.2631 13.9119 32.8141 12.3477 34.3562C11.6454 35.0487 10.8096 35.1733 9.99513 34.7778C9.1293 34.3581 8.57836 33.4743 8.62088 32.5861C8.6502 31.9853 8.94566 31.5263 9.35804 31.1147C11.3525 29.1231 13.3415 27.1265 15.3312 25.1316C15.4628 24.9989 15.5856 24.8582 15.7773 24.6532Z" fill="#F0D3D3"/>
<path d="M17.4302 17.7158C12.5897 17.6993 8.62051 13.6865 8.64874 8.83828C8.6766 3.93658 12.6483 -0.0135281 17.5365 3.48223e-05C22.4345 0.0132312 26.3659 4.02015 26.3414 8.97281C26.3164 13.8111 22.3198 17.7326 17.4302 17.7158ZM21.8293 8.85001C21.8209 6.44278 19.9038 4.52638 17.5013 4.52418C15.0787 4.52162 13.1443 6.47284 13.163 8.90207C13.181 11.3001 15.1146 13.203 17.5236 13.1942C19.9254 13.1857 21.8374 11.2569 21.8293 8.85001Z" fill="#F0D3D3"/>
</g>
<defs>
<clipPath id="clip0_30_148">
<rect width="35" height="35" fill="white"/>
</clipPath>
</defs>
</svg>
