<svg width="25" height="28" viewBox="0 0 25 28" fill="none" xmlns="http://www.w3.org/2000/svg">
<g clip-path="url(#clip0_30_152)">
<path d="M24.2933 20.5492L20.8045 16.6417C19.5585 15.2462 17.4403 15.8044 16.9419 17.6186C16.5681 18.8746 15.3221 19.5724 14.2006 19.2932C11.7086 18.5954 8.34441 14.9671 7.7214 12.0364C7.3476 10.7804 8.0952 9.38488 9.21661 8.96628C10.8364 8.40807 11.3348 6.03567 10.0888 4.64014L6.59999 0.732653C5.60319 -0.244218 4.10798 -0.244218 3.23577 0.732653L0.868352 3.38416C-1.49906 6.17522 1.11755 13.5715 6.9738 20.1305C12.83 26.6895 19.4339 29.7597 21.9259 26.9686L24.2933 24.3171C25.1656 23.2007 25.1656 21.526 24.2933 20.5492Z" fill="#F0D3D3"/>
</g>
<defs>
<clipPath id="clip0_30_152">
<rect width="25" height="28" fill="white"/>
</clipPath>
</defs>
</svg>
