<svg width="35" height="35" viewBox="0 0 35 35" fill="none" xmlns="http://www.w3.org/2000/svg">
<g clip-path="url(#clip0_30_161)">
<path d="M25.8982 20.1114C25.83 20.0786 23.2784 18.8221 22.825 18.659C22.6399 18.5925 22.4416 18.5276 22.2307 18.5276C21.8861 18.5276 21.5967 18.6993 21.3713 19.0366C21.1164 19.4154 20.3448 20.3174 20.1064 20.5868C20.0752 20.6224 20.0327 20.6649 20.0073 20.6649C19.9844 20.6649 19.5895 20.5023 19.47 20.4503C16.7328 19.2613 14.6552 16.4021 14.3703 15.92C14.3297 15.8507 14.328 15.8192 14.3276 15.8192C14.3376 15.7825 14.4297 15.6902 14.4772 15.6426C14.6161 15.5051 14.7667 15.3238 14.9124 15.1485C14.9802 15.0663 15.0488 14.9847 15.1183 14.9038C15.3297 14.6579 15.4238 14.467 15.5328 14.2459L15.59 14.131C15.8564 13.6018 15.6289 13.1552 15.5553 13.011C15.495 12.8903 14.4176 10.2901 14.3031 10.0169C14.0276 9.35771 13.6636 9.05078 13.1578 9.05078C13.1109 9.05078 13.1578 9.05078 12.961 9.05908C12.7214 9.06919 11.4163 9.24101 10.8392 9.60476C10.2273 9.99055 9.19205 11.2203 9.19205 13.3831C9.19205 15.3295 10.4273 17.1674 10.9576 17.8664C10.9708 17.884 10.995 17.9198 11.0301 17.9711C13.0611 20.9373 15.5931 23.1354 18.1598 24.1608C20.6308 25.1478 21.8009 25.2619 22.4661 25.2619H22.4663C22.7458 25.2619 22.9695 25.24 23.1669 25.2206L23.2922 25.2086C24.1458 25.1329 26.0217 24.1609 26.4484 22.9751C26.7845 22.0411 26.8732 21.0207 26.6495 20.6503C26.4964 20.3985 26.2324 20.2718 25.8982 20.1114Z" fill="#F0D3D3"/>
<path d="M17.8105 0C8.33136 0 0.619548 7.65386 0.619548 17.0617C0.619548 20.1045 1.43387 23.0831 2.97648 25.6899L0.0238659 34.3995C-0.00319592 34.4792 -0.00763193 34.5647 0.0110517 34.6467C0.0297352 34.7287 0.0708053 34.8039 0.12969 34.8639C0.188574 34.9239 0.262962 34.9664 0.344573 34.9867C0.426184 35.007 0.511815 35.0042 0.591934 34.9786L9.67375 32.0927C12.159 33.4206 14.9678 34.1215 17.8106 34.1215C27.2888 34.1216 34.9998 26.4685 34.9998 17.0617C34.9998 7.65386 27.2888 0 17.8105 0ZM17.8105 30.5675C15.1356 30.5675 12.5448 29.7951 10.3177 28.3338C10.2612 28.2967 10.1972 28.2726 10.1302 28.2635C10.0632 28.2543 9.99508 28.2602 9.93068 28.2807L5.38125 29.7268L6.84989 25.394C6.8733 25.3249 6.87972 25.2511 6.86863 25.179C6.85753 25.1068 6.82924 25.0384 6.78614 24.9795C5.09023 22.6623 4.19375 19.9244 4.19375 17.0617C4.19375 9.61364 10.3022 3.55409 17.8103 3.55409C25.3176 3.55409 31.4253 9.61364 31.4253 17.0617C31.4255 24.5089 25.3178 30.5675 17.8105 30.5675Z" fill="#F0D3D3"/>
</g>
<defs>
<clipPath id="clip0_30_161">
<rect width="35" height="35" fill="white"/>
</clipPath>
</defs>
</svg>
